<?xml version="1.0" encoding="UTF-8"?>
<svg id="_Слой_1" data-name="Слой 1" xmlns="http://www.w3.org/2000/svg" xmlns:xlink="http://www.w3.org/1999/xlink" viewBox="0 0 1342.88 1612.77">
  <defs>
    <style>
      .cls-1 {
        fill: url(#_Безымянный_градиент);
      }

      .cls-2 {
        fill: url(#_Безымянный_градиент_3);
      }

      .cls-3 {
        fill: url(#_Безымянный_градиент_2);
      }

      .cls-4 {
        fill: url(#_Безымянный_градиент_5);
      }

      .cls-5 {
        fill: url(#_Безымянный_градиент_4);
      }

      .cls-6 {
        fill: url(#_Безымянный_градиент_6);
      }

      .cls-7 {
        fill: url(#_Безымянный_градиент_7);
      }

      .cls-8 {
        fill: #fff;
      }

      .cls-9 {
        fill: #4256f9;
      }

      .cls-10 {
        fill: #182c63;
      }
    </style>
    <linearGradient id="_Безымянный_градиент" data-name="Безымянный градиент" x1="115.42" y1="887.31" x2="391.52" y2="421.36" gradientTransform="translate(0 1612.28) scale(1 -1)" gradientUnits="userSpaceOnUse">
      <stop offset=".2" stop-color="#182c63"/>
      <stop offset="1" stop-color="#4255f9"/>
    </linearGradient>
    <linearGradient id="_Безымянный_градиент_2" data-name="Безымянный градиент 2" x1="1116.41" y1="671.92" x2="1434.41" y2="705.42" gradientTransform="translate(0 1612.28) scale(1 -1)" gradientUnits="userSpaceOnUse">
      <stop offset="0" stop-color="#4255f9"/>
      <stop offset=".6" stop-color="#182c63"/>
    </linearGradient>
    <linearGradient id="_Безымянный_градиент_3" data-name="Безымянный градиент 3" x1="938.06" y1="547.68" x2="409.33" y2="205.03" gradientTransform="translate(0 1612.28) scale(1 -1)" gradientUnits="userSpaceOnUse">
      <stop offset=".05" stop-color="#4255f9"/>
      <stop offset="1" stop-color="#182c63"/>
    </linearGradient>
    <linearGradient id="_Безымянный_градиент_4" data-name="Безымянный градиент 4" x1="144.95" y1="405.04" x2="1050.95" y2="157.54" gradientTransform="translate(0 1612.28) scale(1 -1)" gradientUnits="userSpaceOnUse">
      <stop offset="0" stop-color="#4255f9"/>
      <stop offset=".33" stop-color="#182c63"/>
      <stop offset=".73" stop-color="#182c63"/>
      <stop offset="1" stop-color="#4255f9"/>
    </linearGradient>
    <linearGradient id="_Безымянный_градиент_5" data-name="Безымянный градиент 5" x1="732.05" y1="743.94" x2="1191.04" y2="315.43" gradientTransform="translate(0 1612.28) scale(1 -1)" gradientUnits="userSpaceOnUse">
      <stop offset="0" stop-color="#00b7ff"/>
      <stop offset=".43" stop-color="#4255f9"/>
      <stop offset=".82" stop-color="#182c63"/>
    </linearGradient>
    <linearGradient id="_Безымянный_градиент_6" data-name="Безымянный градиент 6" x1="1104.07" y1="951.28" x2="1120.57" y2="746.28" gradientTransform="translate(0 1612.28) scale(1 -1)" gradientUnits="userSpaceOnUse">
      <stop offset="0" stop-color="#182c63"/>
      <stop offset="1" stop-color="#4255f9"/>
    </linearGradient>
    <linearGradient id="_Безымянный_градиент_7" data-name="Безымянный градиент 7" x1="401.73" y1="1083.1" x2="785.73" y2="1354.1" gradientTransform="translate(0 1612.28) scale(1 -1)" gradientUnits="userSpaceOnUse">
      <stop offset="0" stop-color="#00aeff"/>
      <stop offset=".52" stop-color="#4255f9"/>
      <stop offset="1" stop-color="#182c63"/>
    </linearGradient>
  </defs>
  <g>
    <path class="cls-1" d="M87.81,713.47c-26.92,30.54-53.02,65.89-72.95,98.96-11.87,19.76-11.78,19.58-11.15,30.27,5.62,87.73,20.84,153.7,53.65,231.64,8.43,20.12,25.74,54.38,29.54,58.64,2.27,2.54,6.16,2.72,8.16.45.82-.91,1.9-3.81,2.45-6.43,3.08-16.4,13.23-39.33,26.1-59,4.08-6.16,7.43-12.14,7.43-13.14,0-1.09-1.27-3.9-2.9-6.43-5.26-8.16-17.85-31.18-21.03-38.33-4.89-11.24-10.97-27.1-13.5-35.43-4.89-16.22-13.32-51.29-13.32-55.55,0-1.18.27-.91,11.24,11.6,17.22,19.48,48.85,49.39,77.12,72.95,33.98,28.28,102.14,77.67,146.63,106.3,7.61,4.8,20.3,13.05,28.28,18.22,17.94,11.6,58.18,36.98,61.17,38.61,1.27.63,12.05,7.34,24.02,14.95,11.96,7.52,33.62,21.21,48.03,30.36,14.5,9.15,27.55,17.58,29.09,18.76,1.63,1.27,4.08,2.08,5.89,2.08,3.08,0,3.99-.54,28.28-16.22,2.54-1.72,10.06-6.34,16.49-10.33,13.41-8.25,34.08-21.3,49.39-31.36,5.71-3.72,14.32-9.15,19.03-12.14,10.69-6.62,12.69-8.43,12.69-11.51,0-3.9,3.63-1.45-59.81-40.33-11.24-6.89-27.55-16.77-36.25-22.02-8.7-5.26-20.57-12.42-26.28-16.04-5.71-3.63-19.21-11.78-29.91-18.31-86.64-52.56-165.76-106.3-214.69-146.09-61.44-49.84-108.03-98.51-138.11-144.19-9.52-14.5-20.57-34.17-26.1-46.67-5.08-11.24-5.8-12.23-8.97-12.23-2.18,0-3.81,1.36-9.7,7.98v-.02h0Z"/>
    <path class="cls-3" d="M1337.04,832.97c-8.16-16.13-30.72-50.66-46.04-70.42-4.65-6.02-9.3-12.03-13.96-18.03-2.08-2.72-7.43-9.33-11.87-14.68-15.68-18.94-18.67-21.3-22.02-17.58-.82.91-3.08,5.26-5.17,9.79-13.96,31.18-39.97,69.51-69.51,102.68-10.88,12.23-39.51,40.42-51.11,50.39-10.06,8.61-31.36,24.92-43.5,33.26-4.8,3.26-5.89,4.53-6.07,6.71-.27,3.35.36,4.26,8.07,10.15,24.83,19.39,67.15,58.73,84.46,78.48,7.25,8.34,7.98,8.25,21.03-1.63,5.53-4.17,14.95-11.78,20.84-16.86,13.41-11.51,43.77-41.6,53.38-53.02,3.99-4.71,7.34-8.25,7.52-7.79.54,1.72-5.26,28.28-9.24,41.96-9.88,34.08-21.21,58-41.69,88.18-1.27,1.9-2.36,4.44-2.36,5.62s2.17,5.53,4.8,9.61c7.34,11.42,12.87,21.3,16.58,29.27,4.44,9.7,10.97,26.83,12.69,33.53,1.99,7.61,3.35,9.52,7.07,9.52,1.72,0,3.63-.63,4.44-1.63,2.54-2.81,16.58-28.91,21.93-40.69,11.51-25.28,14.41-32.08,20.75-49.12,16.86-44.68,27.82-87.91,34.89-137.84,3.44-23.93,6.43-55.01,6.43-66.61,0-7.52-.27-9.24-2.36-13.23l.02-.02Z"/>
    <path class="cls-2" d="M447.62,1384.11c24.77,16.29,40.75,26.8,57.71,30.99,10.6,2.62,31.9,4.99,170.89-81.75,13.06-8.15,57.57-36,79.94-49.89,6.1-3.79,15.71-9.7,21.26-13.12,5.64-3.51,14.97-9.33,20.79-13.03,5.82-3.7,14.14-8.87,18.48-11.55,15.25-9.24,82.25-50.82,98.33-60.98,6.19-3.97,15.71-9.89,21.26-13.3,5.55-3.42,13.31-8.41,17.28-10.99,3.97-2.59,11.46-7.39,16.73-10.72,22.92-14.51,24.58-16.17,21.35-21.25-.92-1.48-15.34-14.41-32.16-28.73-16.73-14.32-33.82-29.01-37.89-32.62-13.59-12.2-32.35-27.9-33.92-28.55-1.76-.65-7.21,2.03-17.37,8.59-11.55,7.39-68.11,43.24-79.94,50.63-15.62,9.79-20.24,12.66-31.88,20.05-5.64,3.51-16.73,10.63-24.77,15.61-7.95,4.99-28.65,18.11-45.93,29.01-17.28,10.9-34.75,21.99-38.82,24.58-4.07,2.49-18.85,11.92-32.81,20.88-24.6,15.8-40.92,26.22-45.56,29.2-52.59,33.78-82.55,52.92-120.76,68.01-18.03,7.12-45.14,16.18-80.37,21.79,5.9,4.43,14.52,10.87,24.96,18.61,28.23,20.93,42.35,31.39,53.2,38.53Z"/>
    <path class="cls-9" d="M932.13,1354.62c-2.65-1.6-4.38-2.87-5.43-3.71-.69-.54-2.42-1.93-4.04-3.3-.9-.75-1.38-1.13-4.82-3.77-5.8-4.46-8.72-6.68-9.72-7.45-10.59-8.03-18.65-14.07-18.65-14.07-3.86-2.89-3.1-2.31-10.92-8.17-13.18-9.86-13.06-9.8-16.63-12.45-13.51-9.98-11.39-8-15.89-11.59-4.96-3.96-10.15-7.58-15.29-11.3-6.48-4.68-9-5.23-12.59-2.57-1.35.92-13.59,8.82-27.16,17.63-13.59,8.72-34,21.76-45.42,29.11-11.33,7.35-25.91,16.53-32.38,20.57-6.38,4.04-12.24,7.99-12.78,8.82-.63.82-1.17,2.57-1.17,4.04,0,2.84.72,3.39,26.53,19.56,7.46,4.68,18.53,11.66,24.73,15.61,14.54,9.25,21.9,13.73,23.84,14.97,8.26,5.27,20.24,13.1,34.81,23.33,19.44-10.33,39.64-21.77,60.41-34.41,22.4-13.64,43.26-27.36,62.58-40.86h-.01Z"/>
    <path class="cls-5" d="M1092.89,1207.92c-5.67,7.41-14.46,18.5-25.92,31.36-31.4,35.24-60.5,58.62-83.92,77.39-3.93,3.15-21.91,17.45-47.49,35.53-51.97,36.74-94.88,60.48-122.53,75.67-44.69,24.56-34.94,18.77-55.92,29.18-38.34,19.03-85.55,40.42-89,40.42-.91,0-4.26-1.27-7.52-2.81-7.38-3.49-12.99-5.69-14.5-6.43-18.69-9.17-146.4-67.06-198.48-104.12-1.08-.77-11.06-7.88-24.22-17.4,0,0-15.69-11.35-28.98-21.13-78.58-57.82-98.45-78.42-137.03-123.61-9.52-11.15-10.97-13.41-10.51-15.41.91-3.63,13.32-28,19.76-38.7,3.26-5.44,8.7-13.5,11.96-17.94,3.35-4.53,6.43-9.06,6.89-10.24,1.45-3.9-.54-6.07-11.6-12.96-9.15-5.62-28.28-18.13-40.06-26.19-17.22-11.69-35.89-26.28-49.39-38.43-5.8-5.26-10.97-9.61-11.51-9.61-4.44,0-31.63,42.87-45.68,72.05-6.53,13.59-17.04,39.51-18.94,47.04-1.03,3.93.27,9.09,3.9,15.5,22.2,39.33,42.41,69.69,66.52,99.69,47.85,59.45,118.81,122.62,193.22,171.83,35.98,23.83,50.03,32.44,82.47,50.84,37.61,21.3,90.72,47.67,132.31,65.7,7.52,3.26,15.86,6.89,18.58,8.16,2.72,1.27,8.43,3.63,12.69,5.26,4.26,1.63,14.05,5.62,21.75,8.79,7.7,3.26,17.76,7.16,22.29,8.79l8.25,2.9,13.05-4.98c22.48-8.61,61.17-24.74,81.93-34.26,50.66-23.2,81.93-38.88,117.81-59.18,5.53-3.08,12.33-6.89,15.32-8.52,22.75-12.33,78.03-48.03,105.22-67.79,29.58-21.5,44.62-31.91,51.4-39.86,22.05-25.82,31.5-54.29,37.83-73.38,5.56-16.75,10.29-31.01,11.09-51.01,1.08-27.15-5.71-48.98-11.04-62.15h0Z"/>
    <path class="cls-4" d="M1231.91,1172.01c-2.72-9.43-12.33-32.63-18.22-44.14-21.75-42.41-49.66-78.66-94.25-122.62-15.59-15.41-24.02-23.2-35.16-32.72-1.45-1.27-6.98-5.98-12.23-10.42-17.4-14.86-58.82-46.67-83.38-63.8-39.24-27.64-62.89-43.59-105.58-71.59-48.76-31.9-51.2-33.44-52.93-33.44-.91,0-2.72.82-3.9,1.81-2.18,1.72-11.6,7.79-52.84,34.26-6.15,3.95-10.91,7.01-15.75,10.09-2.5,1.59-8.67,5.52-25.68,16.27-3.3,2.08-9.29,5.87-12.5,7.89l-10.22,7.37c-1.79,1.2-3.46,2.57-4.99,4.08-.93.92-1.33,1.43-1.44,2.15-.31,2.01,1.97,3.77,2.4,4.09,1.64,1.13,3.28,2.26,4.93,3.39,3.41,2.21,6.82,4.43,10.23,6.64,6.63,4.19,16.31,10.44,28.09,17.85,46.22,29.09,108.57,70.33,140.47,92.8,29.36,20.75,73.95,55.92,101.68,80.2,15.32,13.41,43.77,41.87,55.92,55.92,7.45,8.68,15.07,18.29,21.42,26.93,7.12,9.68,10.74,14.47,14.47,20.78,3.32,5.62,10.74,19,15.91,37.77,5.63,20.46,5.74,36.93,5.68,42.28-.17,14.96-2.68,26.41-4.49,34.54-2.54,11.4-5.48,19.77-8.01,26.91-2.87,8.08-6.97,19.49-14.27,33.22-4.92,9.25-12.2,21.27-22.73,34.25,48.63-40.22,87.75-80.92,121.62-126.19,20.03-26.64,39.33-57.28,53.38-84.37l3.81-7.34-1.44-4.86Z"/>
    <path class="cls-10" d="M311.36,567.34c-.13-.18-.21-.3-.29-.42-1.2-1.71-4.47-6.41-8.24-12.65-1.61-2.67-3.52-5.74-5.41-9.96-1.64-3.66-2.34-6.06-2.72-7.54-.65-2.53-.97-4.72-1.13-6.36-1.23.94-3.06,2.33-5.25,4.02-2.97,2.28-23.61,18.15-45.92,36.94-22.42,18.88-50.01,43.83-82.13,74.69-36.48,34.85-39.75,38.21-40.39,40.93-.82,3,3.45,12.25,13.25,28.95,17.43,29.59,40.57,61.71,60.53,83.95,8.98,10.07,11.62,10.16,16.34.64,2.9-5.72,23.14-35.67,32.76-48.46,13.35-17.67,24.74-31.86,37.04-45.62,15.42-17.27,34.38-38.72,63.07-62.2,7.27-5.95,13.47-10.65,17.73-13.8-6.32-7.17-19.23-22.02-29.26-35.46-6.06-8.12-19.86-27.49-19.96-27.64,0,0-.01,0-.02-.01Z"/>
    <path class="cls-6" d="M1032.85,569c-.1.15-13.9,19.52-19.96,27.64-10.03,13.44-22.94,28.29-29.26,35.46,4.26,3.15,10.46,7.85,17.73,13.8,28.69,23.48,47.65,44.93,63.07,62.2,12.3,13.76,23.69,27.95,37.04,45.62,9.62,12.79,29.86,42.74,32.76,48.46,4.72,9.52,7.36,9.43,16.34-.64,19.96-22.24,43.1-54.36,60.53-83.95,9.8-16.7,14.07-25.95,13.25-28.95-.64-2.72-3.91-6.08-40.39-40.93-32.12-30.86-59.71-55.81-82.13-74.69-22.31-18.79-42.95-34.66-45.92-36.94-2.19-1.69-4.02-3.08-5.25-4.02-.16,1.64-.48,3.83-1.13,6.36-.38,1.48-1.08,3.88-2.72,7.54-1.89,4.22-3.8,7.29-5.41,9.96-3.77,6.24-7.04,10.94-8.24,12.65-.08.12-.16.24-.29.42,0,0-.01,0-.02.01Z"/>
    <path class="cls-10" d="M1050.16,530.61c-.18-7.35-.36-14.7-.54-22.05-1.54-66.61-12.98-140.31-31.04-199.84-30.22-99.38-80.68-178.15-149.29-233.33-19.24-15.52-40.75-29.04-65.8-41.38-29.31-14.43-53.36-22.14-85.85-27.41-19.33-3.18-56.72-4.08-77.96-1.91-24.69,2.63-42.75,6.35-64.71,13.52-72.24,23.51-135.5,74.51-185.5,149.38-43.74,65.53-73.6,147.48-86.94,238.69-3.08,21.08-5.16,42.7-5.16,42.7-1.4,15.18-2.03,29.92-3.28,59.4-.83,19.45-.72,21.3-.25,24.16,1.52,9.36,4.78,16.96,23.99,43.99,0,0,30.07,42.29,51.5,62.95.56.54,2.92,2.66,6.35,6.12,20.6,20.78,29.95,29.04,69.7,61.53,19.69,16.15,62.08,47.65,64.07,47.65.73,0,12.34-7.44,26.05-16.43,46.38-30.86,55.63-36.94,74.69-49.19,24.78-15.97,23.14-14.7,23.14-18.24s-.73-4.17-10.44-10.16c-21.45-13.23-41.21-29.09-62.62-42.38-42.4-26.32-103.39-63.9-126.6-127.6-6.44-17.68-7.85-31.52-9.33-46.06-9.44-92.7,35.42-164.72,55.86-196.54,10.02-15.59,36.15-53.7,81.34-89.38,16.83-13.29,67.93-53.08,115.53-50.82,10.12.48,19.51,1.87,28.67,4.34,22.72,6.13,37.94,16.53,45.56,21.8,71.77,49.61,113.26,119.19,113.26,119.19,48.69,81.66,69.63,179.89,47.37,229.4-5.33,11.86-12.07,22.96-12.07,22.96-12.07,19.06-31.04,41.02-53.18,61.71-13.89,12.98-14.61,13.52-33.4,28.41-38.84,30.68-65.53,49.28-129.33,90.3-25.14,16.15-107.36,67.07-147.3,91.21-28.13,17.06-68.61,42.11-105.73,65.53-94.84,59.81-105.1,66.43-105.82,69.52-.82,3.09,0,4.54,3.9,7.26,1.91,1.27,10.44,7.17,18.88,13.16,8.53,5.9,19.15,13.34,23.6,16.52,26.59,18.6,37.48,26.32,47.19,33.31,20.51,14.88,26.05,18.33,29.5,18.42,3.27.18,4.81-.82,46.29-27.95,4.72-3.18,14.97-9.62,22.69-14.52,7.71-4.9,17.61-11.16,21.96-13.98,4.36-2.81,19.6-12.43,33.85-21.42,14.34-8.98,30.86-19.42,36.85-23.14,5.99-3.72,13.61-8.53,16.97-10.53,21.24-13.07,47.37-29.31,61.44-38.3,8.98-5.72,17.97-11.44,19.97-12.61,2-1.18,9.44-5.9,16.52-10.53,6.99-4.54,16.61-10.8,21.33-13.7,12.07-7.71,57.45-37.75,68.25-45.38,20.33-14.16,27.95-19.42,41.38-29.04,0,0,52.44-38.27,115.44-95.93,2.97-2.71,7.88-7.26,13.89-13.52,8.58-8.93,14.57-16.33,22.91-27,32.84-41.99,38.83-53.72,41.52-68.23.37-2.01.6-3.65.73-4.64h0Z"/>
    <path class="cls-7" d="M751.31,134.12c71.77,49.61,113.26,119.19,113.26,119.19,46.28,77.62,67.48,170.21,50.35,221.7,19.5-4.96,39.79-7.06,60.86-6.26,25.02.08,49.18,3.29,72.5,9.62-3.76-58.08-14.32-118.99-29.69-169.65-30.22-99.38-80.68-178.15-149.29-233.33-19.24-15.52-40.75-29.04-65.8-41.38-29.31-14.43-53.36-22.14-85.85-27.41-19.33-3.18-56.72-4.08-77.96-1.91-24.69,2.63-42.75,6.35-64.71,13.52-72.24,23.51-135.5,74.51-185.5,149.38-43.74,65.53-73.6,147.48-86.94,238.69-3.08,21.08-5.16,42.7-5.16,42.7-1.4,15.18-2.03,29.92-3.28,59.4-.83,19.45-.72,21.3-.25,24.16,1.52,9.36,4.78,16.96,23.99,43.99,0,0,30.07,42.29,51.5,62.95.56.54,2.92,2.66,6.35,6.12,20.6,20.78,29.95,29.04,69.7,61.53,19.69,16.15,62.08,47.65,64.07,47.65.73,0,12.34-7.44,26.05-16.43,46.38-30.86,55.63-36.94,74.69-49.19,24.78-15.97,23.14-14.7,23.14-18.24s-.73-4.17-10.44-10.16c-21.45-13.23-41.21-29.09-62.62-42.38-42.4-26.32-103.39-63.9-126.6-127.6-6.44-17.68-7.85-31.52-9.33-46.06-9.44-92.7,35.42-164.72,55.86-196.54,10.02-15.59,36.15-53.7,81.34-89.38,16.83-13.29,67.93-53.08,115.53-50.82,10.12.48,19.51,1.87,28.67,4.34,22.72,6.13,37.94,16.53,45.56,21.8Z"/>
  </g>
  <g>
    <path class="cls-8" d="M511.75,1236.45c-2.69,0-5.84-1.11-8.04-2.82-1.32-1.01-13.94-9.18-28.81-18.56-14.34-9.11-35.88-22.72-48.02-30.36-12.58-8-22.59-14.2-23.72-14.78l-.11-.06c-3.17-1.73-43.91-27.44-61.4-38.74l-3.72-2.41c-7.61-4.93-18.03-11.69-24.53-15.79-44.53-28.66-113.21-78.45-147-106.57-28.38-23.65-60.25-53.8-77.5-73.32-1.14-1.3-2.21-2.52-3.2-3.65,2.72,12.39,7.75,32.66,11.25,44.27,2.41,7.92,8.4,23.65,13.36,35.04,3.16,7.1,15.78,30.1,20.76,37.83.58.9,3.46,5.51,3.46,8.33,0,2.59-5.02,10.56-8.01,15.07-12.55,19.19-22.6,41.85-25.58,57.71-.46,2.21-1.66,6.32-3.29,8.13-1.52,1.72-3.81,2.74-6.25,2.74h-.03c-2.68,0-5.27-1.17-7.09-3.21-4.43-4.97-22.29-40.84-30.16-59.62C21.02,997.05,5.91,931.79.21,842.93l-.02-.26c-.68-11.5-.22-12.26,11.57-31.88l.09-.15c20.01-33.21,46.05-68.53,73.32-99.47l1.09-1.19c5.37-5.98,7.63-7.96,11.25-7.96,5.7,0,7.2,3.31,12.16,14.29,5.38,12.16,16.24,31.58,25.84,46.19,29.96,45.5,76.19,93.75,137.39,143.39,48.65,39.57,126.76,92.71,214.3,145.82,2.96,1.81,6.13,3.74,9.29,5.66,8.49,5.17,16.52,10.05,20.68,12.69,5.23,3.31,15.7,9.64,24.12,14.73l2.1,1.27c7.29,4.4,24.26,14.67,36.27,22.03l9.81,6.01c25.1,15.38,37.71,23.1,44.02,27.36,6.12,4.13,7.87,5.88,7.67,9.55,0,.12-.02.25-.02.39,0,5.17-3.5,7.77-14.35,14.49l-3.16,2.01c-4.74,3-11.23,7.12-15.8,10.09-16.01,10.52-36.87,23.66-49.47,31.41l-3.89,2.41c-5.16,3.19-10.49,6.5-12.47,7.83-25.57,16.51-26.06,16.82-30.24,16.82ZM406.37,1163.72c1.92,1,13.83,8.46,24.25,15.09,12.14,7.63,33.69,21.25,48.03,30.36,12.62,7.96,27.43,17.47,29.34,18.94,1.08.84,2.79,1.36,3.76,1.36,1.98,0,3.71-1.02,26.38-15.66,2.03-1.38,7.19-4.57,12.64-7.95l3.9-2.42c12.57-7.73,33.35-20.82,49.31-31.31,4.61-3.01,11.13-7.13,15.88-10.15l3.19-2.02c8.49-5.26,11.07-7.25,11.07-8.55,0-.25.01-.48.02-.7-2.09-2.29-15.24-10.35-48.35-30.63l-9.81-6.01c-11.99-7.35-28.94-17.61-36.23-22.01l-2.1-1.27c-8.44-5.1-18.95-11.46-24.25-14.81-4.11-2.61-12.47-7.7-20.57-12.62-3.16-1.92-6.33-3.85-9.29-5.66-87.79-53.26-166.19-106.61-215.07-146.36-61.76-50.1-108.47-98.88-138.83-144.98-9.78-14.9-20.87-34.74-26.38-47.18-1.77-3.92-4.2-9.3-5.19-10.12-.08-.01-.24-.03-.58-.03-.95,0-4.16,3.51-7.09,6.81l-1.97,2.22c-26.28,30.09-51.28,64.15-70.6,96.2l-.09.15q-11.13,18.53-10.58,27.87v.24c5.65,88,20.62,152.63,53.4,230.49,8.61,20.55,25.59,53.93,28.93,57.67.48.54,1.18.87,1.86.87.27.02.75-.05,1.06-.4.29-.41,1.16-2.48,1.65-4.83,3.17-16.88,13.37-39.98,26.6-60.2,3.61-5.46,6.04-9.83,6.75-11.42-.29-.82-1.04-2.49-2.24-4.34-5.22-8.1-17.95-31.31-21.29-38.8-5.14-11.82-11.14-27.55-13.65-35.84-4.76-15.79-13.47-51.67-13.47-56.57,0-2.62,1.82-3.51,2.38-3.72,2.51-.95,4.15.84,6.22,3.11,1.69,1.84,4.43,4.96,8.77,9.91,17.04,19.27,48.59,49.12,76.73,72.57,33.61,27.97,101.97,77.53,146.28,106.04,6.5,4.1,16.95,10.87,24.57,15.82l3.71,2.41c18.27,11.81,57.92,36.8,60.91,38.46Z"/>
    <path class="cls-8" d="M1250.94,1145.61c-6.76,0-8.6-5.03-10.46-12.13-1.62-6.3-8.03-23.23-12.49-32.96-3.76-8.08-9.42-18.06-16.34-28.83-1.25-1.95-5.36-8.54-5.36-11.5,0-2.49,1.85-5.93,2.95-7.57,20.31-29.93,31.48-53.56,41.24-87.21,2.5-8.59,5.51-21.48,7.37-30.49-9.87,11.58-39.91,41.4-53.39,52.97-5.88,5.07-15.31,12.7-21.01,17-7.16,5.42-10.78,8.05-14.52,8.34-4.69.36-7.72-3.14-11.26-7.21-17.11-19.52-59.49-58.9-83.97-78.02-7.65-5.84-9.84-7.77-9.4-13.19.34-4.12,3.09-6.27,7.59-9.32,11.77-8.08,33.17-24.45,43.19-33.02,11.64-10.01,40.11-38.08,50.77-50.06,29.42-33.03,55.18-71.08,68.93-101.78.97-2.1,4.19-8.95,5.76-10.7.6-.67,2.44-2.72,5.4-2.64,4.53.09,8.74,4.42,21.92,20.33,4.63,5.58,9.88,12.07,11.95,14.79,4.65,5.98,9.3,11.99,13.95,18.02,15.51,20,38.06,54.5,46.39,70.98l1.14,2.26-.06.06c1.45,3.43,1.64,6.21,1.64,12.5,0,11.79-3.02,43.15-6.47,67.11-7.05,49.81-18.2,93.85-35.08,138.58-6.23,16.76-9.16,23.67-20.84,49.33-4.74,10.44-19.17,37.72-22.45,41.51-1.76,2.11-4.92,2.86-7.11,2.86ZM1213.35,1060.08c.37,1.1,1.89,4.24,4.2,7.82,7.2,11.2,12.85,21.19,16.81,29.69,4.68,10.22,11.19,27.43,12.91,34.14,1.8,6.89,2.47,6.89,3.68,6.89.83,0,1.56-.27,1.79-.42l.05-.06c2.15-2.43,15.91-27.83,21.34-39.79,11.72-25.75,14.42-32.14,20.66-48.89,16.7-44.25,27.72-87.82,34.7-137.11,3.41-23.7,6.4-54.6,6.4-66.12,0-7.33-.27-8.38-1.96-11.61l-1.19-2.28.03-.03c-8.88-16.7-30.17-49.1-44.52-67.61-4.65-6.02-9.3-12.03-13.96-18.03-2.01-2.63-7.3-9.16-11.8-14.59-4.84-5.85-13.71-16.56-16.49-17.72-.06.06-.14.14-.24.25-.46.59-2.35,4.06-4.59,8.91-14.01,31.29-40.21,70.01-70.07,103.54-10.79,12.13-39.64,40.57-51.44,50.72-10.36,8.87-31.64,25.14-43.8,33.49-4.47,3.04-4.52,3.61-4.56,4.11-.13,1.56-.15,1.84,6.71,7.08,24.77,19.34,67.63,59.18,84.97,78.96,2.51,2.89,4.38,4.91,5.43,4.83,1.87-.15,6.23-3.45,10.85-6.95,5.61-4.23,14.88-11.73,20.67-16.72,13.48-11.57,43.68-41.57,52.99-52.62,7.72-9.12,8.81-9.35,10.73-9.03l1.96.33.85,2.12c1.16,3.7-6.93,36.11-9.22,43.99-9.98,34.42-21.4,58.59-42.15,89.17-.91,1.36-1.54,2.87-1.71,3.55ZM1252.77,1138.17h0ZM1259.63,924.79h0Z"/>
    <path class="cls-8" d="M512.15,1419.56c-3.39,0-5.69-.57-7.67-1.06-17.54-4.33-33.94-15.12-58.78-31.45h-.02c-11.04-7.27-25.18-17.76-53.36-38.65-12.02-8.91-20.81-15.49-24.98-18.62l-6.6-4.96,8.15-1.3c27.76-4.42,54.55-11.68,79.63-21.59,38.31-15.13,69.12-34.92,120.15-67.7,1.42-.91,3.93-2.52,7.43-4.76,7.96-5.09,21.05-13.47,38.13-24.44,12.4-7.96,28.45-18.21,32.88-20.92,4.44-2.83,21.99-13.97,38.78-24.55,7.88-4.97,16.47-10.4,24.24-15.31,9.27-5.86,17.37-10.98,21.7-13.7,4.59-2.85,10.21-6.41,15.17-9.55,3.76-2.39,7.19-4.56,9.61-6.07,9.36-5.94,14.2-8.98,23.86-15.03l8.01-5.02c11.95-7.46,68.78-43.49,79.91-50.61,13.73-8.86,17.67-9.96,20.47-8.92l.12.05c2.79,1.15,25.62,20.83,34.92,29.18,4.2,3.72,22.02,19.04,37.83,32.57,8.56,7.29,31.16,26.81,32.86,29.54,1.12,1.76,2.21,3.95,1.62,6.58-1,4.46-5.75,7.88-24.07,19.48-5.26,3.32-12.74,8.12-16.69,10.69-3.79,2.47-11.71,7.56-17.35,11.04-5,3.07-14.77,9.14-21.21,13.27-15.75,9.95-83.19,51.81-98.41,61.03-4.01,2.48-12.44,7.71-18.42,11.51-5.98,3.8-15.61,9.81-20.82,13.05l-3.42,2.11c-5.54,3.41-12.86,7.92-17.84,11.01-16.34,10.15-44.76,27.91-63.57,39.67-7.04,4.4-12.84,8.03-16.36,10.22-116.5,72.7-151.32,83.24-165.92,83.24ZM449.54,1381.19h.02c24.23,15.94,40.24,26.47,56.61,30.52,8.12,2,27.14,6.71,168.2-81.32,3.52-2.2,9.32-5.82,16.36-10.22,18.81-11.76,47.24-29.53,63.59-39.68,4.99-3.1,12.32-7.61,17.86-11.03l3.41-2.1c5.19-3.23,14.8-9.22,20.75-13,6-3.82,14.46-9.07,18.52-11.57,15.22-9.22,82.58-51.03,98.3-60.96,6.46-4.14,16.28-10.24,21.3-13.32,5.58-3.44,13.44-8.5,17.2-10.94,3.96-2.59,11.49-7.41,16.77-10.75,9.11-5.77,20.45-12.95,20.98-15.09h0s-.07-.31-.66-1.23c-1.47-1.75-14.02-13.12-31.53-28.03-15.83-13.55-33.7-28.9-37.94-32.67-12.74-11.44-28.95-25.01-32.64-27.68-1.21.32-4.74,1.78-14.43,8.04-11.15,7.13-68.03,43.19-79.98,50.66l-8,5.01c-9.65,6.04-14.49,9.08-23.85,15.02-2.44,1.52-5.85,3.68-9.59,6.05-4.97,3.15-10.6,6.72-15.21,9.58-4.3,2.7-12.4,7.82-21.66,13.68-7.77,4.91-16.36,10.35-24.25,15.32-16.78,10.58-34.32,21.72-38.81,24.57-4.15,2.54-19.45,12.31-32.8,20.87-17.09,10.97-30.18,19.35-38.14,24.45-3.5,2.24-6,3.84-7.42,4.75-51.39,33.01-82.41,52.94-121.37,68.32-23.11,9.13-47.64,16.05-73.03,20.62,4.65,3.47,10.9,8.14,18.42,13.71,28.08,20.81,42.17,31.26,53.04,38.42h0ZM988.68,1130.4s.01.02.03.04l-.03-.04Z"/>
    <path class="cls-8" d="M809.15,1433.38c-.71,0-1.41-.21-2.01-.64-11.56-8.12-23.23-15.94-34.68-23.24-.55-.35-1.53-.96-2.98-1.86-3.65-2.26-10.44-6.48-20.85-13.11-6.41-4.08-17.51-11.08-24.71-15.6-27.64-17.32-28.17-17.65-28.17-22.52,0-2.16.72-4.56,1.8-6.05.47-.69,1.77-2.17,13.78-9.77,6.22-3.89,20.96-13.16,32.35-20.55,6.7-4.31,16.48-10.57,26.16-16.77,6.85-4.38,13.65-8.74,19.28-12.35,5.36-3.48,10.52-6.82,14.88-9.65,6.25-4.05,11.22-7.27,12.14-7.89,6.01-4.41,10.9-1.57,16.66,2.59,1.09.79,2.19,1.58,3.28,2.36,4.02,2.88,8.17,5.87,12.15,9.04,2.04,1.63,2.61,2.03,4.12,3.08,1.69,1.18,4.52,3.15,11.66,8.43,1.75,1.3,2.62,1.95,4.59,3.43,2.05,1.54,5.32,3.99,12.06,9.03,4.96,3.72,6.46,4.84,7.89,5.9l3.03,2.27s8.07,6.05,18.67,14.08l1.64,1.26c1.59,1.21,4.19,3.2,8.09,6.21,3.5,2.69,3.99,3.07,4.93,3.86,1.57,1.33,3.26,2.69,3.96,3.23,1.3,1.04,2.97,2.18,4.86,3.33.82.42,1.47,1.15,1.76,2.07.46,1.46-.08,3.04-1.33,3.92-20.41,14.26-41.53,28.05-62.76,40.98-19.92,12.12-40.31,23.73-60.59,34.51-.52.27-1.08.41-1.64.41ZM702.74,1356.56c1.28,1.66,10.25,7.28,24.89,16.45,7.21,4.52,18.33,11.54,24.75,15.62,10.38,6.6,17.15,10.81,20.79,13.06,1.49.93,2.5,1.55,3.06,1.91,10.95,6.99,22.1,14.44,33.17,22.18,19.54-10.43,39.15-21.63,58.34-33.3,19.64-11.96,39.18-24.66,58.15-37.79-.48-.35-.94-.71-1.38-1.05-.71-.56-2.49-1.99-4.11-3.36-.83-.69-1.29-1.06-4.69-3.67-3.9-3-6.5-4.98-8.08-6.2l-1.64-1.26c-10.56-8-18.61-14.04-18.61-14.04l-3.02-2.26c-1.42-1.06-2.93-2.19-7.9-5.91-6.74-5.04-10.01-7.49-12.06-9.04-1.96-1.47-2.82-2.11-4.55-3.4-7.06-5.22-9.84-7.16-11.5-8.31-1.56-1.08-2.27-1.58-4.49-3.35-3.84-3.06-7.92-5.99-11.86-8.83-1.1-.79-2.2-1.58-3.29-2.37-6.05-4.37-6.76-3.85-8.45-2.59-.04.03-.07.05-.11.08-.85.58-5.42,3.54-12.33,8.02-4.36,2.83-9.52,6.17-14.89,9.66-5.65,3.62-12.45,7.98-19.3,12.36-9.68,6.2-19.45,12.45-26.13,16.75-11.42,7.41-26.2,16.71-32.42,20.6-7.28,4.61-11.06,7.3-11.88,8.03-.14.28-.42,1.13-.42,1.86,0,.05,0,.09,0,.14ZM703.06,1354.64h0ZM703.34,1354.28s0,0,0,0c0,0,0,0,0,0Z"/>
    <path class="cls-8" d="M670.34,1612.77l-9.46-3.33c-4.33-1.56-14.53-5.5-22.49-8.87-3.74-1.54-16.45-6.76-21.64-8.74-4.41-1.69-10.21-4.09-12.92-5.36-2.82-1.32-11.91-5.27-18.49-8.12-41.68-18.07-94.99-44.54-132.64-65.87-33.15-18.8-47.06-27.38-82.68-50.97-74.91-49.54-145.62-112.43-194.01-172.55-23.94-29.79-44.56-60.68-66.84-100.16-4.13-7.3-5.52-13.22-4.24-18.11,2.04-8.1,12.88-34.58,19.17-47.67,6.55-13.61,16.76-31.74,26.64-47.33,16.94-26.71,20.1-26.71,22.19-26.71,1.36,0,2.26,0,13.86,10.52,13.55,12.2,32.33,26.81,49,38.13,11.82,8.09,30.84,20.52,39.93,26.1,10.37,6.46,15.65,10.15,13.05,17.16-.91,2.32-6.29,9.66-7.36,11.1-3.11,4.23-8.5,12.19-11.77,17.66-6.78,11.27-18.18,33.96-19.31,37.56.59,1.79,6.51,8.72,9.72,12.48,38.56,45.16,58.96,66.05,136.44,123.06,13.13,9.66,28.8,21,28.96,21.11,12.19,8.82,21.6,15.53,24.2,17.38,44.12,31.4,145.08,78.89,183.09,96.76,7.03,3.31,12.12,5.7,14.91,7.07.44.21,1.47.65,2.77,1.21,2.71,1.15,6.8,2.89,11.69,5.2,2.89,1.37,5.16,2.19,6.02,2.43,6-1.53,50.08-21.46,87.45-40.01,5.48-2.72,8.92-4.36,11.68-5.68,7.87-3.76,11.13-5.31,44.11-23.43,25.93-14.25,69.33-38.09,122.2-75.46,24.73-17.48,42.47-31.52,47.32-35.4,23.22-18.61,52.11-41.77,83.5-76.99,8.98-10.07,17.64-20.56,25.75-31.16l3.73-4.87,2.3,5.69c8.35,20.66,12.15,42.06,11.29,63.59-.82,20.48-5.66,35.07-11.26,51.96-6.37,19.21-16,48.22-38.49,74.56-6.15,7.2-18.46,16.12-40.83,32.32-3.47,2.51-7.19,5.21-11.17,8.1-27.86,20.25-83.13,55.85-105.61,68.04-2.12,1.16-6.18,3.42-10.33,5.74l-4.96,2.76c-35.88,20.3-66.78,35.82-118.06,59.3-20.37,9.34-58.75,25.39-82.13,34.35l-14.25,5.44ZM172.85,1056.69c-6.65,6.58-29.23,41.9-42.45,69.37-6.61,13.76-16.92,39.33-18.7,46.38-.78,2.98.45,7.44,3.55,12.92,22.09,39.14,42.51,69.74,66.2,99.22,47.95,59.58,118.09,121.94,192.42,171.1,35.45,23.48,49.29,32.01,82.27,50.71,37.46,21.21,90.5,47.55,131.98,65.53,6.62,2.87,15.77,6.85,18.67,8.2,2.59,1.21,8.18,3.52,12.46,5.16,5.26,2.01,18.04,7.26,21.83,8.82,7.88,3.34,17.92,7.21,22.14,8.73l7.02,2.47,11.85-4.52c23.27-8.91,61.46-24.88,81.72-34.17,51.08-23.39,81.84-38.84,117.54-59.04l4.97-2.77c4.18-2.33,8.26-4.61,10.4-5.78,22.29-12.08,77.15-47.43,104.83-67.55,3.99-2.9,7.71-5.59,11.18-8.11,21.93-15.88,34.01-24.63,39.61-31.19,21.6-25.3,30.97-53.53,37.17-72.21,5.44-16.4,10.14-30.55,10.92-50.05.74-18.54-2.15-37-8.59-54.93-7.09,9.05-14.56,17.99-22.26,26.62-31.77,35.66-60.92,59.02-84.34,77.79-4.89,3.92-22.77,18.06-47.66,35.66-53.19,37.6-96.81,61.56-122.87,75.88-33.15,18.22-36.46,19.8-44.46,23.62-2.74,1.31-6.15,2.93-11.58,5.63-27.89,13.84-85.13,40.78-90.56,40.78-2.13,0-7.01-2.2-9.02-3.14-4.77-2.25-8.78-3.96-11.44-5.09-1.51-.64-2.5-1.07-3.11-1.36-2.74-1.34-7.8-3.72-14.8-7.02-41.75-19.64-139.53-65.63-184.16-97.39-2.6-1.86-12.04-8.58-24.24-17.42-.16-.11-15.85-11.47-29-21.15-78.08-57.45-98.67-78.54-137.62-124.16-10.21-11.96-12.14-14.64-11.26-18.47,1.11-4.42,13.99-29.45,20.17-39.72,3.38-5.63,8.93-13.84,12.14-18.21,3.67-4.97,6.11-8.7,6.47-9.48.36-.97.7-1.88-10.21-8.68-9.14-5.61-28.3-18.14-40.19-26.27-16.91-11.48-35.98-26.32-49.75-38.72-4.26-3.87-7.48-6.6-9.24-8.01ZM173.96,1055.77s0,0,0,0ZM171.45,1055.64s0,0,0,0t0,0Z"/>
    <path class="cls-8" d="M1053.52,1401.01l-4.8-5.06c10.27-11.48,18.83-23.92,25.43-36.99,4.42-8.76,7.33-16.53,12.15-29.41,5.02-13.42,7.54-20.15,9.85-29.95,1.37-5.8,4.22-17.88,4.4-33.78.15-13.09-1.83-27.76-5.56-41.31-3.58-12.99-8.95-25.76-15.55-36.92-3.3-5.58-6.53-9.97-12.4-17.94l-1.87-2.54c-6.46-8.79-14.01-18.28-21.26-26.72-11.97-13.84-40.54-42.41-55.57-55.57-27.62-24.18-72.15-59.31-101.39-79.98-32.23-22.7-95.17-64.29-140.31-92.7-7.29-4.58-13.9-8.81-19.22-12.2-3.37-2.15-6.34-4.05-8.88-5.65l-10.26-6.66c-1.73-1.18-3.37-2.31-5.01-3.45l-.1-.07c-1.33-.99-4.35-3.69-3.77-7.43.28-1.84,1.31-2.99,2.44-4.1,1.69-1.66,3.52-3.16,5.45-4.46l10.36-7.46c1.8-1.13,4.47-2.82,7.04-4.45l5.45-3.44c15.71-9.93,22.17-14.04,25.03-15.86l.64-.41c4.46-2.84,8.86-5.66,14.34-9.19l1.39-.9c38.06-24.43,50.33-32.32,52.53-34.04,1.51-1.25,4.05-2.59,6.1-2.59q2.86,0,54.85,34.01c44.46,29.16,68.16,45.23,105.68,71.66,23.94,16.69,65.37,48.4,83.64,64,5.44,4.6,10.83,9.2,12.26,10.45,11.54,9.87,20.13,17.86,35.31,32.87,44.74,44.11,73.13,81.05,94.9,123.51,6.07,11.85,15.73,35.27,18.47,44.76l1.84,6.2-4.46,8.59c-15.82,29.5-33.87,58.03-53.67,84.84-47.82,64.72-92.17,103.66-125.46,130.34ZM707.29,878.45c1.62,1.11,3.24,2.23,4.86,3.34l10.16,6.59c2.5,1.58,5.49,3.49,8.87,5.65,5.58,3.57,11.92,7.61,19.18,12.18,45.23,28.46,108.31,70.14,140.62,92.9,29.41,20.79,74.2,56.11,101.97,80.43,15.5,13.57,43.9,41.96,56.26,56.26,7.37,8.58,15.03,18.22,21.59,27.15l1.87,2.54c6.01,8.16,9.32,12.65,12.79,18.53,6.91,11.69,12.53,25.04,16.27,38.62,3.9,14.16,5.96,29.52,5.81,43.25-.19,16.67-3.16,29.26-4.58,35.3-2.41,10.23-5.15,17.53-10.1,30.79-4.9,13.11-7.86,21.01-12.46,30.12-2.42,4.79-5.08,9.49-7.99,14.09,29.18-25.28,64.02-59.72,100.94-109.7,19.61-26.54,37.47-54.78,53.11-83.94l3.14-6.05-1.05-3.53c-2.65-9.17-12.05-31.95-17.97-43.52-21.42-41.76-49.41-78.16-93.59-121.72-15.05-14.88-23.55-22.79-34.98-32.55-1.41-1.24-6.88-5.89-12.22-10.41-18.15-15.5-59.32-47-83.12-63.6-37.45-26.38-61.11-42.42-105.5-71.53-36.81-24.08-48.56-31.75-51.04-32.8-.42.15-1.11.5-1.62.93l-.08.07c-2.29,1.81-10.13,6.87-53.12,34.46l-1.39.89c-5.49,3.53-9.9,6.36-14.37,9.2l-.64.41c-2.87,1.82-9.33,5.94-25.05,15.87l-5.45,3.44c-2.54,1.6-5.16,3.26-6.96,4.39l-10.23,7.37c-1.59,1.06-3.1,2.3-4.48,3.66-.08.08-.14.14-.2.2.18.21.44.47.75.71Z"/>
    <path class="cls-8" d="M449.04,1004.56c-.33,0-.65-.02-1.01-.04-4.49-.14-9.53-3.21-31.41-19.09-9.29-6.69-19.99-14.29-47.14-33.27-4.62-3.31-15.41-10.86-23.58-16.51-8.37-5.94-16.94-11.87-18.83-13.12-3.7-2.58-6.84-5.33-5.36-11.01,1.04-4.45,1.44-4.85,107.35-71.64,35.52-22.41,76.05-47.53,105.78-65.56,39.47-23.86,122.02-74.97,147.22-91.16,63.98-41.14,90.52-59.66,129.05-90.1l.86-.68c18.05-14.3,18.75-14.86,32.32-27.54,22.07-20.62,40.75-42.29,52.61-61.03.03-.05,6.66-11.01,11.83-22.52,21.49-47.79,1.2-145.02-47.18-226.17-.41-.69-41.97-69.53-112.24-118.1-7.16-4.95-22.05-15.25-44.48-21.3-8.78-2.37-17.91-3.75-27.92-4.22-31.16-1.48-69.25,15.37-113.19,50.07-31.44,24.82-59.29,55.43-80.56,88.53-17.73,27.6-64.83,100.93-55.32,194.29,1.46,14.37,2.84,27.94,9.14,45.22,22.67,62.21,81.49,98.72,124.44,125.38l.71.44c10.67,6.62,21.06,13.97,31.11,21.07,10.2,7.21,20.75,14.67,31.5,21.3,9.54,5.88,12.1,7.47,12.1,13.14,0,.18,0,.35.01.5.08,2.5-.47,4.23-3.67,6.74-2.53,1.98-7.4,5.12-17.1,11.37l-3.98,2.56c-19.41,12.48-29.18,18.91-74.65,49.16-25.95,17.02-26.59,17.02-27.99,17.02s-2.66,0-27.49-18.46c-11.61-8.63-27.91-21.05-38.8-29.98-39.99-32.69-49.15-40.77-69.97-61.77-2.66-2.68-4.69-4.57-5.66-5.47-.29-.27-.5-.47-.63-.59-21.42-20.65-50.69-61.71-51.92-63.44-18.94-26.65-22.91-35.07-24.59-45.46-.53-3.2-.64-5.01.21-24.87,1.25-29.43,1.87-44.21,3.29-59.57.02-.23,2.12-21.96,5.18-42.88,13.36-91.36,43.62-174.39,87.49-240.13,25.09-37.57,53.73-69.44,85.13-94.73,31.47-25.35,65.86-44.21,102.2-56.03,21.93-7.16,40.27-10.99,65.42-13.67,21.68-2.21,59.28-1.29,78.9,1.94,32.75,5.31,57.09,13.09,86.83,27.72,25.3,12.46,47.04,26.13,66.45,41.8,69.36,55.78,119.98,134.86,150.44,235.04,18.26,60.2,29.63,133.38,31.19,200.78l.54,22.05-.84.02.84.06-3.17.04,3.14.42c-.22,1.66-.47,3.24-.76,4.82-2.88,15.53-9.38,27.79-42.21,69.75-9.04,11.57-14.81,18.6-23.14,27.27-5.95,6.2-10.87,10.78-14.06,13.68-62.41,57.13-115.21,95.79-115.73,96.17-11.56,8.28-18.89,13.38-33.49,23.55l-7.96,5.54c-10.75,7.6-55.86,37.47-68.37,45.46-4.44,2.73-13.04,8.31-19.95,12.8l-1.36.88c-7.04,4.6-14.6,9.4-16.65,10.61-2.06,1.21-12.35,7.76-19.87,12.55-14.48,9.25-41.32,25.92-61.49,38.33-2.27,1.35-6.38,3.92-10.74,6.65-2.11,1.32-4.25,2.66-6.22,3.88-3.09,1.92-8.97,5.62-15.92,9.99-6.52,4.1-13.98,8.79-20.92,13.14-14.07,8.87-29.45,18.58-33.81,21.4-3.19,2.07-9.41,6.02-15.43,9.84l-11.57,7.34c-6.51,4.12-13.88,8.79-17.59,11.29-40.3,26.36-43.7,28.58-47.38,28.58ZM328.45,913.41c-.29,1.13-.22,1.39,2.56,3.33,1.78,1.19,10.15,6.96,18.9,13.18,8.16,5.65,18.99,13.23,23.61,16.53,27.15,18.99,37.87,26.6,47.2,33.32,16.51,11.98,24.84,17.69,27.55,17.76h.1c2.13.16,8.56-4.08,44.18-27.38,3.75-2.53,10.85-7.02,17.72-11.37l11.56-7.33c6.01-3.81,12.22-7.75,15.38-9.8,4.4-2.83,19.8-12.55,33.89-21.44,6.95-4.35,14.4-9.04,20.92-13.14,6.96-4.38,12.86-8.09,15.95-10.01,1.96-1.22,4.1-2.55,6.2-3.87,4.39-2.74,8.54-5.33,10.83-6.7,20.1-12.37,46.89-29.01,61.35-38.24,9.81-6.25,18.08-11.51,20.09-12.68,1.98-1.17,9.4-5.88,16.37-10.44l1.37-.89c6.94-4.51,15.59-10.12,20.04-12.86,12.41-7.93,57.34-37.68,68.06-45.26l7.98-5.55c14.57-10.14,21.88-15.23,33.38-23.47.5-.36,53-38.81,115.11-95.67,3.11-2.84,7.92-7.31,13.73-13.36,8.12-8.45,13.79-15.36,22.68-26.73,31.92-40.81,38.19-52.45,40.84-66.71.25-1.37.47-2.74.67-4.19l-.53-21.77c-1.54-66.79-12.8-139.29-30.89-198.91-30.04-98.8-79.88-176.73-148.13-231.62-19.01-15.34-40.32-28.74-65.15-40.97-29.06-14.31-52.85-21.9-84.86-27.1-19.15-3.15-55.86-4.05-77.04-1.88-24.61,2.62-42.55,6.37-63.98,13.37-35.53,11.56-69.17,30.01-99.98,54.83-30.84,24.84-59,56.19-83.7,93.17-43.3,64.88-73.18,146.92-86.39,237.25-3.03,20.75-5.12,42.31-5.14,42.53-1.4,15.18-2.02,29.89-3.27,59.21-.81,19.06-.71,20.91-.29,23.44,1.38,8.48,4.13,15.43,23.39,42.53.3.42,30.13,42.26,51.08,62.46.11.1.29.27.54.5,1.01.94,3.11,2.89,5.87,5.67,20.6,20.78,29.68,28.79,69.43,61.28,19.35,15.87,54.49,41.87,61.85,46.44,2.14-1.25,8.04-4.89,24.13-15.44,45.49-30.27,55.27-36.71,74.72-49.21l3.98-2.56c10.71-6.9,16.35-10.53,17.57-11.85,0-.05,0-.11,0-.16,0-.22-.01-.46-.01-.72,0-1.6,0-1.77-8.78-7.18-10.94-6.75-21.58-14.27-31.87-21.54-9.96-7.04-20.27-14.33-30.76-20.84l-.72-.44c-43.82-27.2-103.83-64.45-127.33-128.93-6.59-18.1-8.02-32.09-9.52-46.9-9.76-95.8,38.3-170.62,56.4-198.79,21.68-33.74,50.08-64.94,82.12-90.24,45.31-35.78,84.95-53.12,117.86-51.57,10.52.5,20.15,1.96,29.42,4.46,23.6,6.37,39.16,17.13,46.64,22.3,71.57,49.47,113.86,119.57,114.27,120.28,23.86,40.01,41.87,85.41,50.71,127.83,8.98,43.08,7.86,80.29-3.16,104.79-5.36,11.92-11.99,22.88-12.27,23.34-12.21,19.27-31.29,41.43-53.78,62.45-13.78,12.88-14.85,13.73-32.76,27.91l-.86.68c-38.75,30.61-65.4,49.22-129.61,90.5-25.24,16.21-107.88,67.39-147.38,91.26-29.69,18.01-70.18,43.1-105.67,65.49-78.68,49.62-102.04,64.43-104.35,67.62ZM328.38,913.51h0Z"/>
    <path class="cls-8" d="M203.52,811.06c-3.83,0-7.42-3.17-12.48-8.84-20.02-22.31-43.37-54.69-60.93-84.5-12.56-21.41-14.56-28-13.63-31.58.88-3.71,2.05-5.05,41.37-42.61,30.96-29.74,58.65-54.92,82.29-74.84,21.02-17.71,40.56-32.83,46.04-37.04,1.69-1.31,3.17-2.44,4.33-3.32l5.92-4.53.61,6.26c.19,1.92.54,3.88,1.04,5.83.35,1.36.99,3.55,2.52,6.98,1.66,3.71,3.35,6.5,4.84,8.97l.37.62c1.64,2.72,4.21,6.82,7.37,11.39h.06l1.04,1.56c.43.61,13.9,19.51,19.85,27.49,7.16,9.59,17.21,21.78,29.08,35.24l2.52,2.86-3.07,2.27c-5.92,4.38-11.84,8.98-17.59,13.69-27.8,22.75-46.53,43.73-61.58,60.59l-1.1,1.23c-11.59,12.96-22.61,26.54-36.86,45.4-9.32,12.39-29.63,42.41-32.43,47.93-1.98,3.99-4.45,8.32-8.65,8.89-.32.04-.63.06-.94.06ZM123.28,687.82c-.08,1.23,1.07,6.24,12.87,26.35,17.34,29.44,40.38,61.39,60.12,83.38,5.18,5.81,6.83,6.49,7.3,6.51.1-.06,1.09-.62,3.3-5.08,2.99-5.9,23.4-36.11,33.1-49.01,14.37-19.03,25.51-32.74,37.23-45.85l1.1-1.23c15.21-17.04,34.14-38.25,62.37-61.35,4.86-3.97,9.83-7.88,14.82-11.63-10.9-12.47-20.18-23.77-26.93-32.83-5.6-7.51-17.78-24.58-19.79-27.4l-.04-.04-.19-.26c-.16-.23-.26-.38-.36-.53-2.85-4.06-5.67-8.39-8.32-12.78l-.37-.61c-1.52-2.51-3.4-5.63-5.24-9.73-1.75-3.92-2.5-6.5-2.92-8.1-.08-.31-.15-.61-.23-.92-.2.16-.41.32-.63.48-5.46,4.19-24.89,19.23-45.8,36.85-23.53,19.82-51.11,44.89-81.96,74.54-29.42,28.11-38.97,37.35-39.41,39.21v.03Z"/>
    <path class="cls-8" d="M1140.71,812.71c-.31,0-.63-.02-.94-.06-4.2-.57-6.68-4.9-8.67-8.91-2.79-5.49-23.09-35.51-32.42-47.91-14.24-18.85-25.26-32.43-36.85-45.39l-1.1-1.23c-15.05-16.86-33.78-37.84-61.58-60.6-5.74-4.7-11.66-9.31-17.59-13.69l-3.07-2.27,2.52-2.86c11.87-13.47,21.93-25.66,29.08-35.24,5.98-8.01,19.43-26.88,19.89-27.54l.2-.27s.05-.07.07-.1c2.86-4.08,5.59-8.27,8.16-12.52l.37-.61c1.49-2.47,3.18-5.27,4.85-8.98,1.54-3.43,2.18-5.63,2.52-6.98.5-1.95.85-3.91,1.04-5.83l.61-6.26,6.08,4.65c1.13.86,2.56,1.95,4.18,3.2,5.48,4.21,25,19.32,46.04,37.03,23.65,19.91,51.34,45.1,82.3,74.84,39.32,37.56,40.48,38.89,41.36,42.6.93,3.58-1.07,10.17-13.63,31.57-17.56,29.81-40.91,62.2-60.94,84.52-5.05,5.66-8.64,8.83-12.47,8.83ZM988.76,631.56c5,3.76,9.97,7.67,14.82,11.63,28.23,23.1,47.16,44.31,62.37,61.35l1.09,1.23c11.72,13.11,22.85,26.82,37.22,45.84,9.71,12.9,30.11,43.12,33.09,48.99,2.23,4.49,3.21,5.06,3.39,5.12.39-.03,2.04-.71,7.22-6.51,19.75-22.01,42.79-53.96,60.13-83.4,11.79-20.1,12.94-25.11,12.87-26.34v-.03c-.44-1.86-9.99-11.1-39.41-39.2-30.86-29.65-58.43-54.73-81.97-74.54-20.92-17.62-40.34-32.65-45.8-36.84-.21-.17-.42-.33-.63-.49-.07.31-.15.62-.23.92-.41,1.6-1.16,4.18-2.92,8.1-1.84,4.1-3.73,7.23-5.24,9.74l-.36.6c-2.65,4.39-5.47,8.71-8.37,12.85-.05.08-.15.23-.32.46l-.78,1.08c-3.14,4.42-14.26,19.96-19.24,26.62-6.75,9.05-16.02,20.35-26.93,32.83ZM1220.98,689.56s0,0,0,0h0Z"/>
  </g>
</svg>